<?xml version="1.0" encoding="utf-8"?>
<!-- Generator: Adobe Illustrator 26.0.0, SVG Export Plug-In . SVG Version: 6.00 Build 0)  -->
<svg version="1.1" id="Capa_1" xmlns="http://www.w3.org/2000/svg" xmlns:xlink="http://www.w3.org/1999/xlink" x="0px" y="0px"
	 viewBox="0 0 450 100" style="enable-background:new 0 0 450 100;" xml:space="preserve">
<style type="text/css">
	.st0{fill:#F5F5F5;}
	.st1{fill:url(#SVGID_1_);}
</style>
<g>
	<g>
		<path class="st0" d="M153.8,29.7h31.3v6h-11.9v38.9h-7.4V35.7h-12V29.7z"/>
		<path class="st0" d="M189.6,29.6c0-2.6,2.1-4.7,4.7-4.7c2.6,0,4.6,2.1,4.6,4.7s-2.1,4.7-4.6,4.7C191.7,34.3,189.6,32.2,189.6,29.6
			z M190.6,39h7.4v35.6h-7.4V39z"/>
		<path class="st0" d="M256.1,54.7c0-6.5-3.6-9.9-8.9-9.9c-5.4,0-9,3.4-9,9.9v19.9h-7.3V54.7c0-6.5-3.6-9.9-8.9-9.9
			c-5.4,0-9,3.4-9,9.9v19.9h-7.4V39h7.4v4.1c2.4-2.9,6.3-4.6,10.5-4.6c5.6,0,10.3,2.4,12.8,7c2.2-4.3,7.2-7,12.4-7
			c8.3,0,14.7,5.2,14.7,15.2v21h-7.3V54.7z"/>
		<path class="st0" d="M286.1,75.1c-10.2,0-17.8-7.2-17.8-18.4s7.2-18.3,17.8-18.3c10.1,0,17.3,7,17.3,17.5c0,1.2-0.1,2.4-0.3,3.6
			H276c0.5,5.9,4.7,9.4,10.1,9.4c4.5,0,7-2.2,8.4-5h7.9C300.5,70.2,294.9,75.1,286.1,75.1z M276.1,53.6h19.7c-0.1-5.5-4.5-9-9.9-9
			C280.9,44.6,276.9,48,276.1,53.6z"/>
		<path class="st0" d="M308.7,26.8h7.4v47.8h-7.4V26.8z"/>
		<path class="st0" d="M322.9,29.6c0-2.6,2.1-4.7,4.7-4.7c2.6,0,4.6,2.1,4.6,4.7s-2.1,4.7-4.6,4.7C325,34.3,322.9,32.2,322.9,29.6z
			 M323.9,39h7.4v35.6h-7.4V39z"/>
		<path class="st0" d="M364.2,54.7c0-6.5-3.6-9.9-8.9-9.9c-5.4,0-9,3.4-9,9.9v19.9H339V39h7.4v4.1c2.4-2.9,6.3-4.6,10.6-4.6
			c8.3,0,14.6,5.2,14.6,15.2v21h-7.3V54.7z"/>
		<path class="st0" d="M394.2,75.1c-10.2,0-17.8-7.2-17.8-18.4s7.2-18.3,17.8-18.3c10.1,0,17.3,7,17.3,17.5c0,1.2-0.1,2.4-0.3,3.6
			h-27.2c0.5,5.9,4.7,9.4,10.1,9.4c4.5,0,7-2.2,8.4-5h7.9C408.6,70.2,402.9,75.1,394.2,75.1z M384.2,53.6h19.7c-0.1-5.5-4.5-9-9.9-9
			C388.9,44.6,384.9,48,384.2,53.6z"/>
		<path class="st0" d="M429.7,75.1c-8.5,0-14.5-5-14.8-11.5h7.6c0.3,2.9,3,5.3,7.1,5.3c4.3,0,6.5-1.8,6.5-4.3c0-7-20.7-3-20.7-16
			c0-5.7,5.3-10.3,13.7-10.3c8.1,0,13.4,4.3,13.7,11.4h-7.4c-0.3-3.1-2.6-5.2-6.7-5.2c-3.9,0-6,1.6-6,4c0,7.2,20.1,3.2,20.5,16
			C443.4,70.6,438.1,75.1,429.7,75.1z"/>
		<path class="st0" d="M133.8,68.5h-0.7c-0.1,0-0.2,0-0.3,0c-0.1,0-0.3,0-0.4,0h0c-0.1,0-0.1,0-0.2,0c-0.4,0-0.8,0-1.1-0.1
			c-1-0.1-2-0.3-2.9-0.5c0,0-0.1,0-0.1,0c-0.2-0.1-0.4-0.1-0.6-0.2c-1.9-0.7-3.7-1.7-5.1-3.1c-3-2.7-4.8-6.6-4.8-11v-1.1
			c0-0.1,0-0.3,0-0.4s0-0.3,0-0.4v-1.1c0-4,1.6-7.6,4.1-10.3c1.6-1.7,3.5-3,5.8-3.8c1.6-0.6,3.3-0.9,5.1-0.9h0.2c0.1,0,0.1,0,0.2,0
			c0,0,0.1,0,0.1,0h0.9c4.8,0,9,2.3,11.7,5.8l4.6-4.6c-4.2-5-10.4-7.6-17.4-7.6c-12.7,0-22.9,9.5-22.9,22.9
			c0,13.5,10.3,22.9,22.9,22.9c7,0,13.2-2.6,17.3-7.5l-4.6-4.6C142.8,66.3,138.6,68.5,133.8,68.5z"/>
	</g>
	<g>
		<g>
			<path class="st0" d="M63,21.5l0,10.6c0,4.4-0.6,8.7-1.8,12.9c-0.8,2.7,0.4,5.6,2.9,7l12.6,7.3c4.1,2.4,9.3-0.6,9.3-5.4l0-19.1
				c0-4.7-2.5-9.1-6.6-11.5L56.4,10C60.5,12.4,63,16.7,63,21.5z"/>
			<path class="st0" d="M56.9,64.5c-2.4-1.4-5.5-1-7.5,1c-3,3.1-6.4,5.8-10.3,8L30,78.7c-4.1,2.4-9.1,2.4-13.2,0l23,13.3
				c4.1,2.4,9.1,2.4,13.2,0l16.5-9.5c4.1-2.4,4.1-8.4,0-10.7L56.9,64.5z"/>
		</g>
		<linearGradient id="SVGID_1_" gradientUnits="userSpaceOnUse" x1="8.4156" y1="28.1124" x2="51.0972" y2="52.7546">
			<stop  offset="0" style="stop-color:#F5F5F5"/>
			<stop  offset="1" style="stop-color:#C6C6C5"/>
		</linearGradient>
		<path class="st1" d="M33.1,62.5c9.4-7.5,15.7-18.4,17.5-30.3c0.5-3.3,4.1-5,7-3.4l5.5,3.1l0,0.1l0-10.6c0-4.7-2.5-9.1-6.6-11.5
			l-3.5-2c-4.1-2.4-9.1-2.4-13.2,0L13.3,23.3C9.2,25.6,6.6,30,6.6,34.7l0,30.5c0,4.7,2.5,9.1,6.6,11.5c0,0,0,0,0,0l3.5,2
			c4.1,2.4,9.1,2.4,13.2,0l9.2-5.3L39,73.5l-5.4-3.2C30.8,68.6,30.5,64.6,33.1,62.5z M25.1,47.3c-5.4-2-7.2-8.7-3.5-13.2
			c2.2-2.7,6-3.7,9.3-2.5c5.4,2,7.2,8.7,3.5,13.2C32.2,47.5,28.4,48.5,25.1,47.3z"/>
	</g>
</g>
</svg>
