<?xml version="1.0" encoding="UTF-8"?><svg id="Capa_2" xmlns="http://www.w3.org/2000/svg" viewBox="0 0 2637.28 487.06"><defs><style>.cls-1,.cls-2{fill:#fff;}.cls-2{font-family:RalewayItalic-MediumItalic, Raleway;font-size:158.47px;font-variation-settings:'wght' 500;letter-spacing:.03em;}.cls-3{fill:#0033ad;}</style></defs><g id="Capa_1-2"><g><g id="Layer_2"><g id="Layer_1-2"><g><path class="cls-1" d="M144.43,241.7c-1.13,19.6,13.84,36.4,33.43,37.54h1.94c19.6-.02,35.47-15.93,35.45-35.53-.02-19.6-15.93-35.47-35.53-35.45-18.79,.02-34.31,14.69-35.39,33.45l.1-.02Z"/><path class="cls-1" d="M12.1,232.7c-6.32-.35-11.73,4.48-12.08,10.8-.35,6.32,4.48,11.73,10.8,12.08,6.31,.35,11.72-4.47,12.08-10.78,.37-6.31-4.44-11.72-10.75-12.1-.02,0-.04,0-.06,0Z"/><path class="cls-1" d="M142.18,35.74c5.64-2.9,7.86-9.82,4.97-15.46-2.9-5.64-9.82-7.86-15.46-4.97-5.6,2.87-7.84,9.72-5.03,15.34,2.85,5.68,9.76,7.97,15.44,5.12,.03-.01,.05-.03,.08-.04Z"/><path class="cls-1" d="M178.19,98.53c8.74-4.41,12.25-15.07,7.84-23.81-4.41-8.74-15.07-12.25-23.81-7.84-8.74,4.41-12.25,15.06-7.85,23.8,4.4,8.74,15.06,12.26,23.8,7.86,0,0,0,0,.01,0Z"/><path class="cls-1" d="M57.01,141.71c6.74,4.43,15.79,2.56,20.22-4.18,4.43-6.74,2.56-15.79-4.18-20.22-6.74-4.43-15.79-2.56-20.22,4.18,0,0,0,.01-.01,.02-4.42,6.74-2.54,15.78,4.19,20.21Z"/><path class="cls-1" d="M78.6,226.24c-9.77-.55-18.14,6.92-18.69,16.7-.55,9.77,6.92,18.14,16.7,18.69,9.77,.55,18.13-6.91,18.69-16.68,.55-9.78-6.92-18.15-16.7-18.71Z"/><path class="cls-1" d="M58.95,345.41c-7.2,3.64-10.08,12.42-6.45,19.62,3.64,7.2,12.42,10.08,19.62,6.45,7.19-3.64,10.08-12.41,6.45-19.61-3.63-7.2-12.41-10.09-19.61-6.46,0,0,0,0-.01,0Z"/><path class="cls-1" d="M127.85,189.61c9.64,6.32,22.57,3.62,28.89-6.01,6.32-9.64,3.62-22.57-6.01-28.89-9.64-6.32-22.57-3.62-28.89,6.01-6.32,9.62-3.65,22.55,5.97,28.87,.01,0,.02,.02,.04,.02Z"/><path class="cls-1" d="M346.44,97.13c8.21,5.35,19.2,3.04,24.56-5.17,5.35-8.21,3.04-19.2-5.17-24.56-8.2-5.35-19.19-3.04-24.55,5.15-5.36,8.19-3.08,19.17,5.11,24.54,.02,.01,.03,.02,.05,.03Z"/><path class="cls-1" d="M382.82,34.53c5.3,3.48,12.42,1.99,15.89-3.31,3.48-5.3,1.99-12.42-3.31-15.89-5.3-3.48-12.42-1.99-15.89,3.31,0,0,0,0,0,.01-3.47,5.3-1.98,12.41,3.32,15.88Z"/><path class="cls-1" d="M349.23,207.92c-19.57-1.12-36.35,13.83-37.48,33.4-1.12,19.57,13.83,36.35,33.4,37.48h2.06c19.6,0,35.48-15.91,35.47-35.5,0-8.71-3.21-17.12-9.02-23.62-6.24-7.04-15.04-11.27-24.43-11.75Z"/><path class="cls-1" d="M189.85,187.15c6.01,12.01,18.3,19.57,31.73,19.53,19.61,0,35.51-15.89,35.51-35.5,0-5.57-1.31-11.07-3.83-16.05-6.05-11.95-18.33-19.46-31.73-19.39-19.61,.03-35.48,15.96-35.45,35.57,0,5.5,1.3,10.92,3.76,15.84Z"/><path class="cls-1" d="M468.13,141.67c7.2-3.63,10.09-12.42,6.46-19.62-3.63-7.2-12.42-10.09-19.62-6.46-7.19,3.63-10.09,12.4-6.47,19.6,3.63,7.2,12.42,10.1,19.62,6.48Z"/><path class="cls-1" d="M378.13,152.98c-10.29,5.18-14.43,17.73-9.25,28.02,5.18,10.29,17.73,14.43,28.02,9.25,10.29-5.18,14.43-17.73,9.25-28.02-5.17-10.29-17.7-14.44-27.99-9.27-.01,0-.02,.01-.03,.02Z"/><path class="cls-1" d="M262.2,29.18c8.05,.46,14.95-5.7,15.41-13.75,.46-8.05-5.7-14.95-13.75-15.41-8.05-.46-14.95,5.7-15.41,13.75,0,0,0,0,0,.01-.45,8.05,5.7,14.94,13.75,15.4Z"/><path class="cls-1" d="M262.05,121.08c11.51,.65,21.36-8.16,22-19.67,.65-11.51-8.16-21.36-19.67-22-11.49-.64-21.34,8.14-22,19.64-.65,11.51,8.15,21.37,19.66,22.03Z"/><path class="cls-1" d="M148.99,334.08c10.29-5.19,14.43-17.74,9.24-28.03-5.19-10.29-17.74-14.43-28.03-9.24-10.29,5.19-14.43,17.74-9.24,28.03,0,0,0,0,0,0,5.19,10.28,17.73,14.42,28.02,9.23Z"/><path class="cls-1" d="M275.52,151.53c-10.74,16.39-6.16,38.39,10.23,49.13,16.39,10.74,38.39,6.16,49.13-10.23,10.74-16.39,6.16-38.39-10.23-49.13-5.77-3.78-12.51-5.8-19.4-5.8-11.98,0-23.16,6.02-29.73,16.04Z"/><path class="cls-1" d="M337.23,299.93c-8.83-17.5-30.17-24.53-47.67-15.71-17.5,8.83-24.53,30.17-15.71,47.67,6.03,11.96,18.29,19.51,31.69,19.51,5.55-.04,11.02-1.37,15.98-3.88,17.45-8.83,24.47-30.11,15.71-47.59Z"/><path class="cls-1" d="M399.25,297.45c-9.63-6.32-22.57-3.64-28.89,5.99-6.32,9.63-3.64,22.57,5.99,28.89,9.63,6.32,22.57,3.64,28.89-5.99,6.3-9.64,3.62-22.56-5.99-28.89Z"/><path class="cls-1" d="M467.19,244.14c.55-9.77-6.92-18.14-16.7-18.69-9.77-.55-18.14,6.92-18.69,16.7-.55,9.77,6.91,18.13,16.68,18.69,9.78,.55,18.15-6.92,18.71-16.7Z"/><path class="cls-1" d="M516.3,231.52c-6.33-.36-11.76,4.47-12.12,10.8-.36,6.33,4.47,11.76,10.8,12.12,6.33,.36,11.76-4.47,12.12-10.8,0,0,0,0,0,0,.35-6.33-4.48-11.75-10.8-12.12Z"/><path class="cls-1" d="M470.06,345.35c-6.75-4.42-15.8-2.53-20.22,4.21-4.42,6.75-2.53,15.8,4.21,20.22,6.74,4.42,15.79,2.53,20.21-4.2,4.42-6.74,2.54-15.8-4.2-20.22,0,0,0,0,0,0Z"/><path class="cls-1" d="M144.28,452.53c-5.3-3.48-12.42-2-15.9,3.3-3.48,5.3-2,12.42,3.3,15.9,5.3,3.48,12.41,2,15.89-3.29,3.48-5.3,2.01-12.42-3.29-15.9,0,0,0,0,0,0Z"/><path class="cls-1" d="M384.89,451.33c-5.66,2.85-7.94,9.76-5.08,15.42,2.85,5.66,9.76,7.94,15.42,5.08,5.66-2.85,7.94-9.76,5.08-15.42,0,0,0,0,0,0-2.84-5.66-9.73-7.94-15.39-5.1-.01,0-.02,.01-.03,.02Z"/><path class="cls-1" d="M251.55,335.48c10.74-16.39,6.16-38.39-10.23-49.13-16.39-10.74-38.39-6.16-49.13,10.23-10.74,16.39-6.16,38.39,10.23,49.13,5.77,3.78,12.52,5.8,19.42,5.8,11.98,.04,23.17-6,29.71-16.04Z"/><path class="cls-1" d="M180.64,389.95c-8.19-5.36-19.18-3.06-24.54,5.13-5.36,8.19-3.06,19.18,5.13,24.54,8.19,5.36,19.16,3.07,24.53-5.11,5.36-8.19,3.07-19.18-5.12-24.55Z"/><path class="cls-1" d="M263.38,457.88c-8.05-.46-14.95,5.7-15.41,13.75-.46,8.05,5.7,14.95,13.75,15.41,8.05,.46,14.94-5.69,15.41-13.74,.46-8.05-5.69-14.95-13.74-15.42,0,0,0,0,0,0Z"/><path class="cls-1" d="M263.54,366c-11.5-.7-21.39,8.06-22.09,19.56-.7,11.5,8.06,21.39,19.56,22.09,11.5,.7,21.39-8.06,22.09-19.56,0-.03,0-.06,0-.08,.66-11.48-8.09-21.32-19.57-22.01Z"/><path class="cls-1" d="M348.88,388.54c-8.74,4.43-12.23,15.11-7.79,23.85,4.43,8.74,15.11,12.23,23.85,7.79,8.74-4.43,12.23-15.11,7.79-23.85,0-.01-.01-.03-.02-.04-4.43-8.72-15.08-12.2-23.8-7.77-.01,0-.02,.01-.03,.02Z"/></g><g><g><path class="cls-1" d="M707.14,99.73c24.38,0,41.45,13.4,41.45,38.27h31.93c0-43.64-32.18-64.66-73.87-64.66-51.21,0-80.95,27.8-80.95,86.56s29.74,86.55,80.95,86.55c42.18,0,73.87-20.47,73.87-64.12h-30.72c0,24.38-16.83,37.79-42.65,37.79-33.9,0-49.53-18.78-49.53-57.78v-4.87c.03-38.25,15.86-57.74,49.51-57.74Z"/><path class="cls-1" d="M864.95,76.31l-65.1,167.27h32.19l13.4-36.33h76.51l13.76,36.33h33.65l-65.14-167.27h-39.26Zm-9.75,104.56l17.07-45.85c3.41-9.01,9.51-28.52,10.73-31.93h1.21c1.22,3.41,7.32,23.15,10.73,31.93l17.06,45.84h-56.81Z"/><path class="cls-1" d="M1143.45,127.03c0-30.95-17.8-50.71-54.62-50.71h-88.27V243.58h31.22v-64.66h51.92l31.64,64.66h34.13l-35.77-69.49c19.74-7.8,29.74-24.38,29.74-47.07Zm-57.07,25.6h-54.6v-49.73h54.6c16.83,0,25.6,9.03,25.6,24.13,0,15.86-9.51,25.6-25.6,25.6Z"/><path class="cls-1" d="M1252.94,76.31h-66.84V243.58h66.81c50.46,0,81.17-26.33,81.17-83.63s-30.68-83.63-81.14-83.63Zm49.25,86.07c-.25,36.58-17.55,54.62-49.25,54.62h-35.59V102.89h35.59c31.64,0,49.25,18.05,49.25,54.62v4.87Z"/><path class="cls-1" d="M1415.86,76.31l-65.13,167.27h32.18l13.41-36.33h76.56l13.65,36.33h33.65l-65.1-167.27h-39.22Zm-9.75,104.56l17.05-45.85c3.41-9.01,9.51-28.52,10.73-31.93h1.24c1.21,3.41,7.32,23.15,10.73,31.93l17.06,45.84h-56.81Z"/><path class="cls-1" d="M1662.86,175.8c0,3.16,.48,11.69,.48,13.17l-1.21,.48c-.73-.96-5.61-9.51-8.25-13.4l-72.65-99.73h-29.79V243.58h29.99v-100.21c0-4.13-.5-12.19-.5-13.41l1.22-.73c.73,.98,4.39,8.05,8.25,13.66l73.15,100.69h29.25V76.31h-29.98v99.48h.03Z"/><path class="cls-1" d="M1817.14,73.4c-52.42,0-84.12,27.79-84.12,86.55s31.64,86.55,84.12,86.55,84.36-27.79,84.36-86.55-31.95-86.55-84.36-86.55Zm52.42,89.23c0,38.27-18.28,57.54-52.42,57.54s-52.17-19.26-52.17-57.54v-5.12c0-38.29,18.53-57.78,52.17-57.78s52.42,19.49,52.42,57.78v5.12Z"/></g><rect class="cls-1" x="625.71" y="351.34" width="154.82" height="15.18"/><rect class="cls-1" x="1746.69" y="351.34" width="154.82" height="15.18"/><text class="cls-2" transform="translate(847.14 408.93)"><tspan x="0" y="0">TIMELINES</tspan></text></g></g></g><g><g><path class="cls-1" d="M2155.1,161.54h21.14l-7.85,36.84c-.81,3.22-1.21,5.77-1.21,7.65,0,2.28,.6,3.76,1.81,4.43,1.21,.67,3.22,1.01,6.04,1.01,4.03,0,6.81-.84,8.36-2.52,1.54-1.68,2.85-5.2,3.93-10.57l26.98-127.44h23.35l-26.98,127.44c-1.61,7.38-3.32,13.29-5.13,17.72-1.81,4.43-4.16,7.82-7.05,10.17-2.89,2.35-6.51,3.89-10.87,4.63-4.36,.74-9.9,1.11-16.61,1.11-4.7,0-8.69-.2-11.98-.6-3.29-.4-6.01-1.14-8.15-2.21-2.15-1.07-3.69-2.65-4.63-4.73-.94-2.08-1.41-4.8-1.41-8.15,0-4.29,.81-10.27,2.42-17.92l7.85-36.84Z"/><path class="cls-1" d="M2300.86,198.39c-1.61,7.38-3.32,13.29-5.13,17.72-1.81,4.43-4.2,7.82-7.15,10.17-2.95,2.35-6.68,3.89-11.17,4.63-4.5,.74-10.17,1.11-17.01,1.11-5.1,0-9.46-.2-13.09-.6-3.62-.4-6.54-1.14-8.76-2.21-2.21-1.07-3.82-2.65-4.83-4.73-1.01-2.08-1.51-4.8-1.51-8.15,0-4.43,.81-10.4,2.42-17.92l20.33-96.04c1.61-7.38,3.32-13.25,5.13-17.62,1.81-4.36,4.16-7.72,7.05-10.07,2.89-2.35,6.57-3.89,11.07-4.63,4.5-.74,10.17-1.11,17.01-1.11,5.1,0,9.46,.2,13.09,.6,3.62,.4,6.57,1.14,8.86,2.21,2.28,1.08,3.93,2.69,4.93,4.83,1.01,2.15,1.51,4.9,1.51,8.25,0,4.43-.81,10.27-2.42,17.52l-20.33,96.04Zm-3.02-96.04c.27-1.61,.53-3.02,.81-4.23,.27-1.21,.4-2.28,.4-3.22,0-2.28-.64-3.72-1.91-4.33-1.28-.6-3.39-.91-6.34-.91-2.15,0-3.89,.17-5.23,.5-1.34,.34-2.49,.98-3.42,1.91-.94,.94-1.71,2.25-2.32,3.93-.6,1.68-1.18,3.79-1.71,6.34l-20.33,96.04c-.81,3.49-1.21,6.04-1.21,7.65,0,2.28,.6,3.76,1.81,4.43,1.21,.67,3.35,1.01,6.44,1.01,2.15,0,3.93-.17,5.34-.5,1.41-.33,2.55-1.01,3.42-2.01,.87-1.01,1.61-2.35,2.22-4.03,.6-1.68,1.17-3.86,1.71-6.54l20.33-96.04Z"/><path class="cls-1" d="M2395.89,90.27h-17.31l-29.6,139.72h-23.15l29.6-139.72h-17.52l4.03-19.33h57.98l-4.03,19.33Z"/><path class="cls-1" d="M2423.27,229.99l7.45-35.43h-19.53l-7.45,35.43h-22.55l26.98-127.64c1.61-7.38,3.32-13.25,5.13-17.62,1.81-4.36,4.19-7.72,7.15-10.07,2.95-2.35,6.61-3.89,10.97-4.63,4.36-.74,9.83-1.11,16.41-1.11,4.96,0,9.23,.23,12.78,.7,3.55,.47,6.44,1.31,8.66,2.52,2.21,1.21,3.83,2.89,4.83,5.03,1.01,2.15,1.51,4.9,1.51,8.25,0,4.16-.74,9.8-2.21,16.91l-26.98,127.64h-23.15Zm19.93-140.33c-2.01,0-3.72,.17-5.13,.5-1.41,.34-2.55,.94-3.42,1.81-.87,.87-1.61,2.15-2.21,3.83-.6,1.68-1.18,3.86-1.71,6.54l-15.5,73.29h19.53l15.5-73.29c.67-3.09,1.01-5.3,1.01-6.64,0-2.42-.57-4.03-1.71-4.83-1.14-.8-3.26-1.21-6.34-1.21Z"/><path class="cls-1" d="M2506.62,169.8l-12.68,60.2h-23.15l33.62-159.05h33.02c5.24,0,9.66,.2,13.29,.6,3.62,.4,6.57,1.18,8.86,2.32,2.28,1.14,3.93,2.72,4.93,4.73,1.01,2.01,1.51,4.7,1.51,8.05,0,2.28-.2,4.77-.6,7.45-.4,2.69-.94,5.77-1.61,9.26l-7.25,34.03c-1.48,7.12-3.15,12.82-5.03,17.11-1.88,4.3-4.26,7.59-7.15,9.87-2.89,2.28-6.58,3.76-11.07,4.43-4.5,.67-10.1,1.01-16.81,1.01h-9.86Zm16.71-78.72l-12.68,60h9.87c2.01,0,3.69-.17,5.03-.5,1.34-.33,2.48-.97,3.42-1.91,.94-.94,1.68-2.25,2.21-3.93,.53-1.68,1.14-3.86,1.81-6.54l7.45-34.83c.27-1.61,.5-3.02,.7-4.23,.2-1.21,.3-2.28,.3-3.22,0-1.88-.6-3.15-1.81-3.83-1.21-.67-3.36-1.01-6.44-1.01h-9.86Z"/><path class="cls-1" d="M2603.86,229.99h-45.5l33.62-159.05h45.3l-4.03,19.13h-22.15l-4.83,23.15h21.54l-4.03,18.32h-21.54l-16.51,78.52h22.35l-4.23,19.93Z"/></g><g><path class="cls-1" d="M2075.24,127.51c-3.12,0-5.66-.72-7.64-2.15-1.98-1.44-3.39-3.35-4.24-5.75l-1.5,7.12h-9.34l12.27-57.79h10.69l-5.07,23.98c1.85-2.4,4.08-4.32,6.69-5.75,2.61-1.44,5.32-2.15,8.11-2.15,3.01,0,5.51,.74,7.52,2.23,2.01,1.49,3.52,3.48,4.55,5.99,1.03,2.51,1.54,5.3,1.54,8.38,0,3.55-.65,6.89-1.94,10.02-1.29,3.13-3.06,5.88-5.3,8.26-2.24,2.37-4.76,4.24-7.56,5.6-2.8,1.36-5.73,2.03-8.79,2.03Zm-.79-9.02c1.69,0,3.33-.4,4.91-1.2,1.58-.8,3-1.89,4.24-3.26,1.24-1.37,2.22-2.95,2.93-4.74,.71-1.79,1.07-3.69,1.07-5.71,0-1.66-.3-3.22-.91-4.7-.61-1.48-1.46-2.65-2.57-3.53-1.11-.88-2.45-1.32-4.04-1.32-1.42,0-2.85,.35-4.27,1.04-1.43,.7-2.77,1.64-4.04,2.82-1.27,1.19-2.37,2.53-3.32,4.02l-2.06,9.79c.21,1.34,.69,2.52,1.43,3.55,.74,1.03,1.68,1.82,2.81,2.39,1.13,.57,2.41,.85,3.84,.85Z"/><path class="cls-1" d="M2096.38,136.34c2.16-.21,3.92-.48,5.26-.82,1.35-.34,2.52-.92,3.52-1.75,1-.83,2-1.92,3.01-3.27l2.37-3.12-6.97-41.73h10.92l3.56,31.83,2.69-4.37c1.64-2.7,3.07-5.2,4.31-7.49,1.24-2.29,2.32-4.51,3.25-6.67,.92-2.16,1.73-4.33,2.41-6.51,.68-2.18,1.32-4.45,1.9-6.79h10.21c-.69,2.49-1.44,4.85-2.26,7.06-.82,2.21-1.82,4.51-3.01,6.9-1.19,2.39-2.65,5.1-4.39,8.11-1.74,3.02-3.93,6.6-6.57,10.76l-6.33,10.06c-1.85,2.91-3.63,5.38-5.34,7.41-1.72,2.03-3.46,3.64-5.22,4.84-1.77,1.2-3.63,2.08-5.58,2.65-1.95,.57-4.09,.88-6.41,.94l-1.35-8.04Z"/></g><g><g><rect class="cls-1" x="2168.35" y="284.35" width="466.85" height="117" rx="58.5" ry="58.5"/><path class="cls-3" d="M2576.7,403.43h-349.85c-33.4,0-60.58-27.18-60.58-60.58s27.18-60.58,60.58-60.58h349.85c33.4,0,60.58,27.18,60.58,60.58s-27.18,60.58-60.58,60.58Zm-349.85-117c-31.11,0-56.43,25.31-56.43,56.43s25.31,56.43,56.43,56.43h349.85c31.11,0,56.43-25.31,56.43-56.43s-25.31-56.43-56.43-56.43h-349.85Z"/></g><g><circle class="cls-1" cx="2200.05" cy="343.18" r="72.88"/><path class="cls-3" d="M2200.05,418.13c-41.33,0-74.95-33.62-74.95-74.95s33.62-74.95,74.95-74.95,74.95,33.62,74.95,74.95-33.62,74.95-74.95,74.95Zm0-145.75c-39.04,0-70.8,31.76-70.8,70.8s31.76,70.8,70.8,70.8,70.8-31.76,70.8-70.8-31.76-70.8-70.8-70.8Z"/></g><path class="cls-3" d="M2236.06,324.71c.06,.81,.06,1.61,.06,2.42,0,24.56-18.69,52.86-52.86,52.86-10.53,0-20.31-3.05-28.53-8.34,1.5,.17,2.93,.23,4.49,.23,8.69,0,16.68-2.93,23.07-7.94-8.17-.17-15.01-5.52-17.37-12.89,1.15,.17,2.3,.29,3.51,.29,1.67,0,3.34-.23,4.89-.63-8.51-1.73-14.9-9.2-14.9-18.23v-.23c2.47,1.38,5.35,2.24,8.4,2.36-5-3.34-8.28-9.03-8.28-15.47,0-3.45,.92-6.61,2.53-9.38,9.15,11.27,22.89,18.64,38.31,19.44-.29-1.38-.46-2.82-.46-4.26,0-10.24,8.28-18.58,18.58-18.58,5.35,0,10.18,2.24,13.58,5.87,4.2-.81,8.23-2.36,11.79-4.49-1.38,4.31-4.31,7.94-8.17,10.24,3.74-.4,7.36-1.44,10.7-2.88-2.53,3.68-5.69,6.96-9.32,9.61h0Z"/><g><path class="cls-3" d="M2331.63,356.73c1.22,0,2.32-.53,3.29-1.6,.97-1.07,1.79-2.43,2.46-4.09,.67-1.66,1.17-3.39,1.52-5.18,.34-1.79,.51-3.4,.51-4.81,0-1.87-.31-3.69-.92-5.47-.61-1.78-1.52-3.38-2.72-4.81-1.2-1.43-2.7-2.57-4.5-3.41-1.79-.84-3.89-1.26-6.3-1.26-2.75,0-5.44,.58-8.08,1.75-2.63,1.17-5.01,2.79-7.13,4.87-2.12,2.08-3.81,4.51-5.07,7.27-1.26,2.77-1.89,5.76-1.89,8.96,0,2.9,.55,5.53,1.66,7.87,1.11,2.35,2.7,4.2,4.78,5.55,2.08,1.35,4.57,2.03,7.47,2.03,1.57,0,3.05-.2,4.47-.6s2.86-.93,4.35-1.58l.29,2.18c-1.64,.76-3.27,1.34-4.9,1.72-1.62,.38-3.2,.57-4.72,.57-3.09,0-5.83-.74-8.22-2.2-2.39-1.47-4.25-3.52-5.58-6.16-1.34-2.63-2-5.69-2-9.16,0-3.02,.49-5.82,1.46-8.42,.97-2.6,2.31-4.93,4.01-7.02,1.7-2.08,3.63-3.87,5.78-5.35s4.43-2.62,6.82-3.41c2.39-.78,4.74-1.17,7.07-1.17,2.6,0,4.91,.46,6.93,1.37,2.02,.92,3.73,2.16,5.12,3.72,1.39,1.57,2.44,3.34,3.15,5.33,.71,1.99,1.06,4.03,1.06,6.13,0,1.11-.11,2.46-.34,4.07-.23,1.6-.6,3.26-1.12,4.98-.52,1.72-1.19,3.32-2.03,4.81-.84,1.49-1.87,2.7-3.09,3.64-1.22,.94-2.67,1.4-4.35,1.4-1.11,0-2.04-.28-2.81-.83-.76-.55-1.15-1.54-1.15-2.95,0-.19,0-.4,.03-.63,.02-.23,.05-.46,.09-.69-1.26,1.22-2.74,2.23-4.44,3.04-1.7,.8-3.41,1.2-5.12,1.2-1.87,0-3.48-.48-4.84-1.43-1.36-.95-2.4-2.23-3.12-3.84s-1.09-3.36-1.09-5.27c0-2.02,.38-3.98,1.15-5.87,.76-1.89,1.8-3.58,3.12-5.07s2.81-2.66,4.47-3.52,3.39-1.29,5.18-1.29c2.02,0,3.68,.53,4.98,1.58,1.3,1.05,2.21,2.36,2.75,3.92l1.03-5.04h3.21l-4.29,20.1c-.08,.38-.13,.74-.17,1.06-.04,.32-.06,.6-.06,.83,0,.76,.15,1.32,.46,1.66,.3,.34,.76,.52,1.37,.52Zm-12.71-1.2c1.22,0,2.42-.31,3.61-.92,1.18-.61,2.24-1.41,3.18-2.41,.93-.99,1.61-2.06,2.03-3.21l1.38-7.85c-.61-2.14-1.54-3.69-2.78-4.67-1.24-.97-2.59-1.46-4.04-1.46-1.22,0-2.45,.31-3.69,.92-1.24,.61-2.38,1.46-3.41,2.55-1.03,1.09-1.85,2.36-2.46,3.81-.61,1.45-.92,3-.92,4.64s.32,3.17,.97,4.47c.65,1.3,1.51,2.31,2.58,3.04,1.07,.73,2.25,1.09,3.55,1.09Z"/><path class="cls-3" d="M2339.76,368.99c-1.26,0-2.41-.19-3.44-.57-1.03-.38-1.91-.99-2.63-1.83l3.04-3.38c.42,.5,.94,.84,1.55,1.03,.61,.19,1.24,.29,1.89,.29,.76,0,1.54-.21,2.32-.63,.78-.42,1.46-1,2.03-1.74,.57-.74,.95-1.57,1.15-2.48l6.64-31.06h5.04l-6.59,30.74c-.38,1.86-1.15,3.53-2.29,4.99-1.15,1.46-2.48,2.6-4.01,3.42-1.53,.82-3.09,1.23-4.7,1.23Zm15.06-52.29h5.04l-1.37,6.3h-5.04l1.38-6.3Z"/><path class="cls-3" d="M2371.72,358.91c-2.67,0-4.89-.57-6.64-1.71-1.76-1.14-3.06-2.65-3.92-4.55-.86-1.89-1.29-3.98-1.29-6.25,0-2.5,.46-4.85,1.38-7.05,.92-2.2,2.18-4.14,3.81-5.83,1.62-1.69,3.5-3,5.64-3.95,2.14-.95,4.41-1.42,6.82-1.42,2.67,0,4.9,.57,6.67,1.71,1.78,1.14,3.1,2.65,3.98,4.55,.88,1.9,1.32,4,1.32,6.31,0,2.46-.46,4.8-1.38,6.99-.92,2.2-2.2,4.14-3.84,5.83-1.64,1.69-3.53,3-5.67,3.95-2.14,.95-4.43,1.42-6.87,1.42Zm.86-4.35c1.49,0,2.93-.32,4.32-.96,1.39-.64,2.63-1.56,3.72-2.75s1.96-2.58,2.61-4.17c.65-1.59,.97-3.33,.97-5.22,0-1.74-.29-3.28-.86-4.62-.57-1.34-1.41-2.4-2.52-3.17-1.11-.77-2.48-1.16-4.12-1.16-1.49,0-2.92,.33-4.29,.99-1.38,.66-2.62,1.59-3.72,2.78-1.11,1.19-1.99,2.59-2.63,4.19-.65,1.61-.97,3.35-.97,5.24,0,1.7,.29,3.22,.86,4.56,.57,1.34,1.42,2.39,2.55,3.15,1.12,.76,2.49,1.13,4.09,1.13Z"/><path class="cls-3" d="M2393.88,354.33c0-.27,.02-.54,.06-.83,.04-.29,.08-.56,.12-.83l4.29-20.1h-3.89l.86-3.95h3.84l2.12-9.96h5.04l-2.12,9.96h6.36l-.86,3.95h-6.3l-3.95,18.55c-.04,.15-.07,.3-.09,.43-.02,.13-.03,.28-.03,.43,0,.8,.25,1.38,.74,1.75,.5,.36,1.11,.54,1.83,.54,.65,0,1.27-.09,1.86-.26s1.12-.35,1.58-.54c.46-.19,.8-.34,1.03-.46l.29,4.01c-.46,.31-1.07,.61-1.83,.92-.76,.31-1.62,.54-2.58,.72s-1.95,.26-2.98,.26c-1.53,0-2.81-.37-3.84-1.12-1.03-.74-1.55-1.9-1.55-3.46Z"/><path class="cls-3" d="M2422.06,358.91c-2.21,0-4.12-.56-5.73-1.68-1.6-1.12-2.83-2.61-3.67-4.49s-1.26-3.93-1.26-6.17c0-2.39,.45-4.68,1.35-6.88,.9-2.2,2.12-4.16,3.67-5.88,1.55-1.72,3.31-3.1,5.3-4.12,1.98-1.02,4.07-1.53,6.24-1.53,2.29,0,4.2,.63,5.73,1.88,1.53,1.25,2.6,2.77,3.21,4.55l1.32-5.97h5.04l-5.04,23.34c-.04,.15-.07,.28-.09,.39s-.03,.23-.03,.34c0,.68,.42,1.03,1.26,1.07l-.92,4.35c-.42,.04-.79,.09-1.12,.14s-.62,.09-.89,.09c-1.07,0-1.88-.24-2.43-.71-.55-.47-.83-1.06-.83-1.75,0-.22,.02-.47,.06-.76,.04-.29,.09-.64,.17-1.04,.08-.4,.17-.84,.29-1.31-1.49,1.9-3.29,3.39-5.41,4.49-2.12,1.1-4.19,1.65-6.21,1.65Zm2.18-4.35c.84,0,1.75-.17,2.72-.51,.97-.34,1.93-.81,2.86-1.41s1.78-1.31,2.55-2.12c.76-.81,1.34-1.67,1.72-2.57l1.78-8.53c-.15-1.28-.59-2.44-1.32-3.48s-1.61-1.87-2.66-2.49c-1.05-.62-2.17-.93-3.35-.93-1.6,0-3.11,.39-4.52,1.16-1.41,.77-2.66,1.8-3.75,3.09-1.09,1.28-1.95,2.71-2.58,4.28-.63,1.57-.94,3.15-.94,4.73s.3,3.1,.92,4.42c.61,1.32,1.48,2.38,2.61,3.17,1.13,.79,2.45,1.19,3.98,1.19Z"/><path class="cls-3" d="M2451.49,328.61h4.47l-1.2,5.62c1.53-1.82,3.31-3.29,5.35-4.41,2.04-1.12,4.13-1.68,6.27-1.68s4.1,.57,5.67,1.71c1.56,1.14,2.77,2.64,3.61,4.52s1.26,3.93,1.26,6.17c0,2.35-.44,4.62-1.32,6.82-.88,2.2-2.08,4.17-3.61,5.91-1.53,1.74-3.27,3.12-5.24,4.12-1.97,1-4.06,1.51-6.27,1.51-2.33,0-4.26-.61-5.78-1.82-1.53-1.21-2.62-2.75-3.26-4.6l-3.84,18.05h-5.04l8.93-41.92Zm8.36,25.94c1.6,0,3.11-.39,4.52-1.16,1.41-.77,2.66-1.79,3.75-3.06,1.09-1.27,1.95-2.68,2.58-4.25s.94-3.15,.94-4.73-.31-3.11-.92-4.45c-.61-1.34-1.48-2.41-2.61-3.2-1.13-.79-2.45-1.19-3.98-1.19-.84,0-1.75,.17-2.72,.51-.97,.34-1.94,.82-2.89,1.44-.95,.62-1.8,1.33-2.55,2.12-.75,.79-1.31,1.64-1.69,2.55l-1.83,8.47c.27,1.28,.74,2.45,1.4,3.51,.67,1.06,1.52,1.9,2.55,2.52,1.03,.62,2.18,.93,3.44,.93Z"/><path class="cls-3" d="M2485.85,328.61h5.04l-6.36,29.72h-5.04l6.36-29.72Zm2.52-11.91h5.04l-1.32,6.3h-5.04l1.32-6.3Z"/><path class="cls-3" d="M2498.79,328.61h4.47l-1.2,5.62c1.53-1.82,3.31-3.29,5.35-4.41,2.04-1.12,4.13-1.68,6.27-1.68s4.1,.57,5.67,1.71c1.56,1.14,2.77,2.64,3.61,4.52s1.26,3.93,1.26,6.17c0,2.35-.44,4.62-1.32,6.82-.88,2.2-2.08,4.17-3.61,5.91-1.53,1.74-3.27,3.12-5.24,4.12-1.97,1-4.06,1.51-6.27,1.51-2.33,0-4.26-.61-5.78-1.82-1.53-1.21-2.62-2.75-3.26-4.6l-3.84,18.05h-5.04l8.93-41.92Zm8.36,25.94c1.6,0,3.11-.39,4.52-1.16,1.41-.77,2.66-1.79,3.75-3.06,1.09-1.27,1.95-2.68,2.58-4.25s.94-3.15,.94-4.73-.31-3.11-.92-4.45c-.61-1.34-1.48-2.41-2.61-3.2-1.13-.79-2.45-1.19-3.98-1.19-.84,0-1.75,.17-2.72,.51-.97,.34-1.94,.82-2.89,1.44-.95,.62-1.8,1.33-2.55,2.12-.75,.79-1.31,1.64-1.69,2.55l-1.83,8.47c.27,1.28,.74,2.45,1.4,3.51,.67,1.06,1.52,1.9,2.55,2.52,1.03,.62,2.18,.93,3.44,.93Z"/><path class="cls-3" d="M2533.15,328.61h4.47l-1.2,5.62c1.53-1.82,3.31-3.29,5.35-4.41,2.04-1.12,4.13-1.68,6.27-1.68s4.1,.57,5.67,1.71c1.56,1.14,2.77,2.64,3.61,4.52s1.26,3.93,1.26,6.17c0,2.35-.44,4.62-1.32,6.82-.88,2.2-2.08,4.17-3.61,5.91-1.53,1.74-3.27,3.12-5.24,4.12-1.97,1-4.06,1.51-6.27,1.51-2.33,0-4.26-.61-5.78-1.82-1.53-1.21-2.62-2.75-3.26-4.6l-3.84,18.05h-5.04l8.93-41.92Zm8.36,25.94c1.6,0,3.11-.39,4.52-1.16,1.41-.77,2.66-1.79,3.75-3.06,1.09-1.27,1.95-2.68,2.58-4.25s.94-3.15,.94-4.73-.31-3.11-.92-4.45c-.61-1.34-1.48-2.41-2.61-3.2-1.13-.79-2.45-1.19-3.98-1.19-.84,0-1.75,.17-2.72,.51-.97,.34-1.94,.82-2.89,1.44-.95,.62-1.8,1.33-2.55,2.12-.75,.79-1.31,1.64-1.69,2.55l-1.83,8.47c.27,1.28,.74,2.45,1.4,3.51,.67,1.06,1.52,1.9,2.55,2.52,1.03,.62,2.18,.93,3.44,.93Z"/><path class="cls-3" d="M2573.98,358.91c-2.67,0-4.89-.57-6.64-1.71-1.76-1.14-3.06-2.65-3.92-4.55-.86-1.89-1.29-3.98-1.29-6.25,0-2.5,.46-4.85,1.38-7.05,.92-2.2,2.18-4.14,3.81-5.83,1.62-1.69,3.5-3,5.64-3.95,2.14-.95,4.41-1.42,6.82-1.42,2.67,0,4.9,.57,6.67,1.71,1.78,1.14,3.1,2.65,3.98,4.55,.88,1.9,1.32,4,1.32,6.31,0,2.46-.46,4.8-1.38,6.99-.92,2.2-2.2,4.14-3.84,5.83-1.64,1.69-3.53,3-5.67,3.95-2.14,.95-4.43,1.42-6.87,1.42Zm.86-4.35c1.49,0,2.93-.32,4.32-.96,1.39-.64,2.63-1.56,3.72-2.75s1.96-2.58,2.61-4.17c.65-1.59,.97-3.33,.97-5.22,0-1.74-.29-3.28-.86-4.62-.57-1.34-1.41-2.4-2.52-3.17-1.11-.77-2.48-1.16-4.12-1.16-1.49,0-2.92,.33-4.29,.99-1.38,.66-2.62,1.59-3.72,2.78-1.11,1.19-1.99,2.59-2.63,4.19-.65,1.61-.97,3.35-.97,5.24,0,1.7,.29,3.22,.86,4.56,.57,1.34,1.42,2.39,2.55,3.15,1.12,.76,2.49,1.13,4.09,1.13Z"/></g></g></g></g></g></svg>